# xmcd
#
# Track frame offsets:
#	150
#	19449
#	30249
#	40215
#	54327
#	63854
#	74606
#	84862
#	96963
#	106655
#	116008
#
# Disc length: 1716 seconds
#
# Revision: 0
# Processed by: cddbd v1.5.2PL0 Copyright (c) Steve Scherf et al.
# Submitted via: audiograbber 1.82.01
#
DISCID=8506b20b
DTITLE=Tammy Wynette - Bedtime Story
DYEAR=1972
DGENRE=Country
TTITLE0=Bedtime Story
TTITLE1=That's When I Feel It
TTITLE2=Take Me Home And Love Me
TTITLE3=If This Is Our Last Time
TTITLE4=Tonight My Baby's Coming Home
TTITLE5=Love's The Answer
TTITLE6=I'm Gonna Keep On Loving Him
TTITLE7=Just As Soon As I Get Over Loving You
TTITLE8=I Got Me A Man
TTITLE9=Your Love's Been A Long Time Coming
TTITLE10=Reach Out Your Hand
EXTD=
EXTT0=
EXTT1=
EXTT2=
EXTT3=
EXTT4=
EXTT5=
EXTT6=
EXTT7=
EXTT8=
EXTT9=
EXTT10=
PLAYORDER=
